<mxfile host="Electron" agent="Mozilla/5.0 (Windows NT 10.0; Win64; x64) AppleWebKit/537.36 (KHTML, like Gecko) draw.io/26.0.9 Chrome/128.0.6613.186 Electron/32.2.5 Safari/537.36" version="26.0.9">
  <diagram name="Page-1" id="DZfTlKiHmt3aFLI8Hxoc">
    <mxGraphModel dx="1050" dy="621" grid="1" gridSize="10" guides="1" tooltips="1" connect="1" arrows="1" fold="1" page="1" pageScale="1" pageWidth="850" pageHeight="1100" background="#ffffff" math="0" shadow="0">
      <root>
        <mxCell id="0" />
        <mxCell id="1" parent="0" />
        <mxCell id="PA3c17XMpdO2NiNptCf5-1" value="&lt;b&gt;User&lt;/b&gt;" style="rounded=0;whiteSpace=wrap;html=1;fillColor=#fff2cc;gradientColor=#ffd966;strokeColor=#d6b656;" parent="1" vertex="1">
          <mxGeometry x="130" y="170" width="90" height="40" as="geometry" />
        </mxCell>
        <mxCell id="PA3c17XMpdO2NiNptCf5-2" value="&lt;b&gt;1.1&lt;/b&gt;" style="swimlane;childLayout=stackLayout;horizontal=1;startSize=30;horizontalStack=0;rounded=1;fontSize=14;fontStyle=0;strokeWidth=2;resizeParent=0;resizeLast=1;shadow=0;dashed=0;align=center;arcSize=4;whiteSpace=wrap;html=1;fillColor=#ffcd28;gradientColor=#ffa500;strokeColor=#d79b00;" parent="1" vertex="1">
          <mxGeometry x="20" y="300" width="120" height="90" as="geometry" />
        </mxCell>
        <mxCell id="PA3c17XMpdO2NiNptCf5-3" value="&lt;b&gt;Register&lt;/b&gt;&lt;div&gt;&lt;b&gt;User&lt;/b&gt;&lt;/div&gt;" style="align=center;strokeColor=#d79b00;fillColor=#ffcd28;spacingLeft=4;fontSize=12;verticalAlign=top;resizable=0;rotatable=0;part=1;html=1;gradientColor=#ffa500;" parent="PA3c17XMpdO2NiNptCf5-2" vertex="1">
          <mxGeometry y="30" width="120" height="60" as="geometry" />
        </mxCell>
        <mxCell id="XMTFg9M6kqgRMLjtEyi1-1" value="&lt;b&gt;Admin&lt;/b&gt;" style="rounded=0;whiteSpace=wrap;html=1;fillColor=#fff2cc;gradientColor=#ffd966;strokeColor=#d6b656;" parent="1" vertex="1">
          <mxGeometry x="440" y="170" width="90" height="40" as="geometry" />
        </mxCell>
        <mxCell id="XMTFg9M6kqgRMLjtEyi1-5" value="" style="group" parent="1" vertex="1" connectable="0">
          <mxGeometry x="185" y="540" width="130" height="40" as="geometry" />
        </mxCell>
        <mxCell id="XMTFg9M6kqgRMLjtEyi1-3" value="User Accounts" style="rounded=0;whiteSpace=wrap;html=1;fillColor=#cce5ff;strokeColor=#36393d;" parent="XMTFg9M6kqgRMLjtEyi1-5" vertex="1">
          <mxGeometry width="130" height="40" as="geometry" />
        </mxCell>
        <mxCell id="XMTFg9M6kqgRMLjtEyi1-4" value="" style="endArrow=none;html=1;rounded=0;entryX=0.185;entryY=0.011;entryDx=0;entryDy=0;entryPerimeter=0;exitX=0.187;exitY=0.988;exitDx=0;exitDy=0;exitPerimeter=0;" parent="XMTFg9M6kqgRMLjtEyi1-5" source="XMTFg9M6kqgRMLjtEyi1-3" target="XMTFg9M6kqgRMLjtEyi1-3" edge="1">
          <mxGeometry width="50" height="50" relative="1" as="geometry">
            <mxPoint x="-30" y="100" as="sourcePoint" />
            <mxPoint x="20" y="50" as="targetPoint" />
          </mxGeometry>
        </mxCell>
        <mxCell id="XMTFg9M6kqgRMLjtEyi1-6" value="&lt;b&gt;1.2&lt;/b&gt;" style="swimlane;childLayout=stackLayout;horizontal=1;startSize=30;horizontalStack=0;rounded=1;fontSize=14;fontStyle=0;strokeWidth=2;resizeParent=0;resizeLast=1;shadow=0;dashed=0;align=center;arcSize=4;whiteSpace=wrap;html=1;fillColor=#ffcd28;gradientColor=#ffa500;strokeColor=#d79b00;" parent="1" vertex="1">
          <mxGeometry x="190" y="300" width="120" height="90" as="geometry" />
        </mxCell>
        <mxCell id="XMTFg9M6kqgRMLjtEyi1-7" value="&lt;b&gt;Login&lt;/b&gt;&lt;div&gt;&lt;b&gt;User&lt;/b&gt;&lt;/div&gt;" style="align=center;strokeColor=#d79b00;fillColor=#ffcd28;spacingLeft=4;fontSize=12;verticalAlign=top;resizable=0;rotatable=0;part=1;html=1;gradientColor=#ffa500;" parent="XMTFg9M6kqgRMLjtEyi1-6" vertex="1">
          <mxGeometry y="30" width="120" height="60" as="geometry" />
        </mxCell>
        <mxCell id="XMTFg9M6kqgRMLjtEyi1-8" value="&lt;b&gt;1.3&lt;/b&gt;" style="swimlane;childLayout=stackLayout;horizontal=1;startSize=30;horizontalStack=0;rounded=1;fontSize=14;fontStyle=0;strokeWidth=2;resizeParent=0;resizeLast=1;shadow=0;dashed=0;align=center;arcSize=4;whiteSpace=wrap;html=1;fillColor=#ffcd28;gradientColor=#ffa500;strokeColor=#d79b00;" parent="1" vertex="1">
          <mxGeometry x="425" y="300" width="120" height="90" as="geometry" />
        </mxCell>
        <mxCell id="XMTFg9M6kqgRMLjtEyi1-9" value="&lt;b&gt;Manage&lt;/b&gt;&lt;div&gt;&lt;b&gt;Roles&lt;/b&gt;&lt;/div&gt;" style="align=center;strokeColor=#d79b00;fillColor=#ffcd28;spacingLeft=4;fontSize=12;verticalAlign=top;resizable=0;rotatable=0;part=1;html=1;gradientColor=#ffa500;" parent="XMTFg9M6kqgRMLjtEyi1-8" vertex="1">
          <mxGeometry y="30" width="120" height="60" as="geometry" />
        </mxCell>
        <mxCell id="XMTFg9M6kqgRMLjtEyi1-10" value="" style="endArrow=none;html=1;rounded=0;entryX=0;entryY=0.5;entryDx=0;entryDy=0;exitX=0.5;exitY=0;exitDx=0;exitDy=0;edgeStyle=orthogonalEdgeStyle;startArrow=block;startFill=1;" parent="1" source="PA3c17XMpdO2NiNptCf5-2" target="PA3c17XMpdO2NiNptCf5-1" edge="1">
          <mxGeometry width="50" height="50" relative="1" as="geometry">
            <mxPoint x="10" y="290" as="sourcePoint" />
            <mxPoint x="60" y="240" as="targetPoint" />
          </mxGeometry>
        </mxCell>
        <mxCell id="XMTFg9M6kqgRMLjtEyi1-11" value="Registration&lt;div&gt;Info&lt;/div&gt;" style="text;html=1;align=center;verticalAlign=middle;resizable=0;points=[];autosize=1;strokeColor=none;fillColor=none;" parent="1" vertex="1">
          <mxGeometry y="210" width="90" height="40" as="geometry" />
        </mxCell>
        <mxCell id="XMTFg9M6kqgRMLjtEyi1-12" value="" style="endArrow=none;html=1;rounded=0;entryX=0.873;entryY=1.012;entryDx=0;entryDy=0;exitX=0.167;exitY=0;exitDx=0;exitDy=0;exitPerimeter=0;entryPerimeter=0;startArrow=block;startFill=1;" parent="1" source="XMTFg9M6kqgRMLjtEyi1-6" target="PA3c17XMpdO2NiNptCf5-1" edge="1">
          <mxGeometry width="50" height="50" relative="1" as="geometry">
            <mxPoint x="146.25" y="320" as="sourcePoint" />
            <mxPoint x="203.75" y="219.99999999999994" as="targetPoint" />
          </mxGeometry>
        </mxCell>
        <mxCell id="XMTFg9M6kqgRMLjtEyi1-13" value="Login&lt;div&gt;Credentials&lt;/div&gt;" style="text;html=1;align=center;verticalAlign=middle;resizable=0;points=[];autosize=1;strokeColor=none;fillColor=none;" parent="1" vertex="1">
          <mxGeometry x="135" y="230" width="80" height="40" as="geometry" />
        </mxCell>
        <mxCell id="XMTFg9M6kqgRMLjtEyi1-14" value="" style="endArrow=block;html=1;rounded=0;entryX=1;entryY=0.5;entryDx=0;entryDy=0;exitX=0.75;exitY=0;exitDx=0;exitDy=0;edgeStyle=orthogonalEdgeStyle;endFill=1;" parent="1" source="XMTFg9M6kqgRMLjtEyi1-6" target="PA3c17XMpdO2NiNptCf5-1" edge="1">
          <mxGeometry width="50" height="50" relative="1" as="geometry">
            <mxPoint x="230" y="280" as="sourcePoint" />
            <mxPoint x="280" y="230" as="targetPoint" />
          </mxGeometry>
        </mxCell>
        <mxCell id="XMTFg9M6kqgRMLjtEyi1-15" value="Success/Failure" style="text;html=1;align=center;verticalAlign=middle;resizable=0;points=[];autosize=1;strokeColor=none;fillColor=none;" parent="1" vertex="1">
          <mxGeometry x="270" y="230" width="110" height="30" as="geometry" />
        </mxCell>
        <mxCell id="XMTFg9M6kqgRMLjtEyi1-17" value="" style="endArrow=none;html=1;rounded=0;entryX=0.5;entryY=1;entryDx=0;entryDy=0;exitX=0.5;exitY=0;exitDx=0;exitDy=0;startArrow=block;startFill=1;" parent="1" source="XMTFg9M6kqgRMLjtEyi1-8" target="XMTFg9M6kqgRMLjtEyi1-1" edge="1">
          <mxGeometry width="50" height="50" relative="1" as="geometry">
            <mxPoint x="410" y="310" as="sourcePoint" />
            <mxPoint x="460" y="260" as="targetPoint" />
          </mxGeometry>
        </mxCell>
        <mxCell id="XMTFg9M6kqgRMLjtEyi1-18" value="Role&lt;div&gt;Updates&lt;/div&gt;" style="text;html=1;align=center;verticalAlign=middle;resizable=0;points=[];autosize=1;strokeColor=none;fillColor=none;" parent="1" vertex="1">
          <mxGeometry x="475" y="233" width="70" height="40" as="geometry" />
        </mxCell>
        <mxCell id="XMTFg9M6kqgRMLjtEyi1-19" value="" style="endArrow=none;html=1;rounded=0;entryX=0.5;entryY=1;entryDx=0;entryDy=0;exitX=0.5;exitY=0;exitDx=0;exitDy=0;startArrow=block;startFill=1;" parent="1" source="XMTFg9M6kqgRMLjtEyi1-3" target="XMTFg9M6kqgRMLjtEyi1-6" edge="1">
          <mxGeometry width="50" height="50" relative="1" as="geometry">
            <mxPoint x="150" y="520" as="sourcePoint" />
            <mxPoint x="200" y="470" as="targetPoint" />
          </mxGeometry>
        </mxCell>
        <mxCell id="XMTFg9M6kqgRMLjtEyi1-20" value="Authenticate" style="text;html=1;align=center;verticalAlign=middle;resizable=0;points=[];autosize=1;strokeColor=none;fillColor=none;" parent="1" vertex="1">
          <mxGeometry x="240" y="438" width="90" height="30" as="geometry" />
        </mxCell>
        <mxCell id="XMTFg9M6kqgRMLjtEyi1-21" value="" style="endArrow=none;html=1;rounded=0;entryX=0.5;entryY=1;entryDx=0;entryDy=0;exitX=0;exitY=0.5;exitDx=0;exitDy=0;edgeStyle=orthogonalEdgeStyle;startArrow=block;startFill=1;" parent="1" source="XMTFg9M6kqgRMLjtEyi1-3" target="PA3c17XMpdO2NiNptCf5-3" edge="1">
          <mxGeometry width="50" height="50" relative="1" as="geometry">
            <mxPoint x="180" y="560" as="sourcePoint" />
            <mxPoint x="200" y="470" as="targetPoint" />
          </mxGeometry>
        </mxCell>
        <mxCell id="XMTFg9M6kqgRMLjtEyi1-22" value="Save User&lt;div&gt;Info&lt;/div&gt;" style="text;html=1;align=center;verticalAlign=middle;resizable=0;points=[];autosize=1;strokeColor=none;fillColor=none;" parent="1" vertex="1">
          <mxGeometry x="70" y="453" width="80" height="40" as="geometry" />
        </mxCell>
        <mxCell id="XMTFg9M6kqgRMLjtEyi1-23" value="" style="endArrow=none;html=1;rounded=0;entryX=0.5;entryY=1;entryDx=0;entryDy=0;exitX=1;exitY=0.5;exitDx=0;exitDy=0;edgeStyle=orthogonalEdgeStyle;startArrow=block;startFill=1;" parent="1" source="XMTFg9M6kqgRMLjtEyi1-3" target="XMTFg9M6kqgRMLjtEyi1-8" edge="1">
          <mxGeometry width="50" height="50" relative="1" as="geometry">
            <mxPoint x="370" y="600" as="sourcePoint" />
            <mxPoint x="420" y="550" as="targetPoint" />
          </mxGeometry>
        </mxCell>
        <mxCell id="XMTFg9M6kqgRMLjtEyi1-24" value="Update&amp;nbsp;&lt;div&gt;Roles&lt;/div&gt;" style="text;html=1;align=center;verticalAlign=middle;resizable=0;points=[];autosize=1;strokeColor=none;fillColor=none;" parent="1" vertex="1">
          <mxGeometry x="475" y="470" width="70" height="40" as="geometry" />
        </mxCell>
      </root>
    </mxGraphModel>
  </diagram>
</mxfile>
